<?xml version="1.0" encoding="utf-8"?>
<!-- Generator: Adobe Illustrator 21.1.0, SVG Export Plug-In . SVG Version: 6.00 Build 0)  -->
<svg version="1.1" id="Layer_1" xmlns="http://www.w3.org/2000/svg" xmlns:xlink="http://www.w3.org/1999/xlink" x="0px" y="0px"
	 viewBox="0 0 647.2 267" style="enable-background:new 0 0 647.2 267;" xml:space="preserve">
<style type="text/css">
	.st0{fill:#3D2666;}
	.st1{fill:#FDB927;}
</style>
<path class="st0" d="M68.4,128l1.7-0.8l0.2-0.2c1.9-2.6,5-4.6,8.3-6.7c3.8-2.5,7.7-5,9.9-8.7c3.3-1.4,5.5-3.2,7.6-4.9
	c1.9-1.6,3.8-3.2,6.6-4.6l0.2-0.1l0.2-0.2c2.6-3.2,8-6.1,12.8-8.7l1.1-0.6l0.2-0.5c0.3-0.9,1.3-1.3,3.1-2l2-0.8l0,0
	c2.9-1.8,5.4-3.7,7.9-5.5c3.1-2.3,6-4.5,9.4-6.4c3.2-1.8,5.5-3.9,7.7-5.9c1.4-1.2,2.7-2.4,4.1-3.4c0.1,0,0.7-0.4,0.7-0.4l0.1-0.5
	c0.1-0.3,0.4-0.9,0.6-1.4c0.5-0.9,1.1-2,1.1-3.1c0-0.4-0.1-0.8-0.3-1.2c-0.5-0.9-1.4-1.4-2.9-1.6l-0.3,0l-0.6,0.2
	c-1,0.4-2.3,0.9-2.3,2.1c0,0,0,0,0,0c0,0.1,0,0.2,0,0.2c-3.4,2.3-7.7,3.9-11.9,5.5l-3.1,1.2l-0.2,0.3c0,0-0.3,0.5-0.5,0.7
	c-5.7,2.9-10.8,6.5-15.7,9.9c-3.4,2.4-7,4.9-10.7,7.1c-3.4,0.8-5,2.6-6.4,4.1c-1.3,1.4-2.5,2.7-5,3.3l-0.1,0c-1,0.3-1.4,1-1.7,1.5
	c-0.2,0.4-0.3,0.5-0.9,0.7l-1,0.3l0.1,1v0c0,0.6-1.3,1.2-2.3,1.7c-1.3,0.7-2.8,1.4-3.2,2.7c-4.8,2.3-8.3,5.4-11.7,8.7
	c-4.3,2.7-8.1,5.6-11.7,8.5c-5.4,4.2-10.5,8.2-17.2,11.3c-1.2,0.3-2.4,0.1-3-0.2c1.3-2.9,2.8-5.6,4.2-8.3c2.4-4.5,4.9-9.1,6.6-14.3
	c0,0,1.2-3.6,1.2-3.6c1.9-5.6,4.5-13.3,8.6-20.5c2.4-3.5,5.5-8.1,8.3-13.1c0.2-0.2,1.4-1.2,1.4-1.2c2.1-1.8,5-4.3,5-7.3
	c0-1.1-0.4-2.3-1.5-3.6l-0.2-0.3l-0.3-0.1c-1-0.4-1.3-0.5-1.3-0.9c0-0.2,0.1-0.4,0.2-0.7c0.1-0.4,0.3-1,0.3-1.7c0-0.9-0.4-2-1.9-3
	c-2.7-1.7-6.2-3.6-11.8-4.2l-0.3,0L59.6,48c-2.9,1-3.5,3.2-4,4.9c0,0-0.3,0.9-0.3,1c-0.7,1.5-2.4,1.7-5.1,1.8
	c-2.2,0.1-4.5,0.2-6.1,1.7L44,57.6L44,57.7c-0.7,1-1,1.9-1,2.8c0,0.3,0,0.7,0.1,1c0.6,2,2.9,2.9,5.2,3.7c1.7,0.7,3.6,1.4,4.1,2.4
	c0,0.1,0.1,0.2,0.1,0.5c0,0.2-0.1,0.6-0.3,1.1l-0.1,0.2l-2.9,24l0,0.1c0,1.6-1,4-1.9,6.1c-0.9,2.1-1.7,4-1.8,5.5
	c-2.2,6.9-5.8,14.5-10.6,22.2c-0.9,1.3-1.3,2.6-1.8,3.9c-0.7,2.1-1.2,3.8-3.6,5.1l0,0l0,0c-1.1,0.7-1.7,1.6-1.9,2.8
	c0,0.2,0,0.4,0,0.5c0,1.1,0.5,2.3,1.3,3.4c-2.8,6.4-5.9,14.5-5.9,22.4c0,0.6,0,1.3,0.1,1.9c-1.6,1.9-1.7,3.9-1.8,5.6
	c0,1.4-0.1,2.6-1,3.5l-0.5,0.5l0.2,0.7c0.2,0.7,0.4,1.5,0.4,2.2c0,1.8-0.6,3.8-1.2,5.9c-0.4,1.5-0.9,3-1.1,4.5L18,191l1.1,1
	c1,1,2.1,2,4.1,2.1l0.3,0l0.3-0.2c0.8-0.5,1.7-0.9,2.6-1.3c2.4-1.1,5-2.3,6.3-4.6l0.4-0.6l-0.3-0.6c-0.6-1.1-1.8-1.4-2.6-1.5
	c-0.1,0-0.3-0.1-0.4-0.1c-0.1-1-0.2-2.1-0.2-3.1c0-4.1,0.9-8.3,1.8-12.5c0.9-4.2,1.8-8.5,1.8-12.8v-0.1c0.1-2.4,1.5-4.9,3-7.5
	c1-1.7,2-3.5,2.7-5.3c2.1-2.7,5.1-2.5,9.1-2.2c1.9,0.1,4.1,0.3,6.3,0c0.5,0.2,2.7,1.2,2.7,1.2c3,1.3,6.1,2.7,9.2,4
	c0.4,0.4,6.4,7.7,6.4,7.7c0.8,1.1,1.9,1.6,2.9,2.1c0.9,0.5,1.5,0.8,1.7,1.3l0.2,0.5l0.5,0.2c4.2,2,7.4,4.5,10.9,7.2
	c2.4,1.9,4.9,3.8,7.8,5.5l0.1,0.1l0.2,0c1.1,0.3,1.8,1,2.6,1.7c1.1,1,2.3,2.1,4.4,2.5c2.2,2.8,6.5,3.3,9.9,3.7c0,0,0.4,0.1,0.8,0.1
	c1,2.2,3.7,2,5.6,1.9c1.5-0.1,3.1-0.1,4,0.6l0.5,0.4l0.7-0.2c1.4-0.3,2.8-0.7,3.3-1.8c0.1-0.2,0.2-0.5,0.2-0.9c0-0.3-0.1-0.6-0.2-1
	l-0.1-0.2l-0.1-0.1c-0.5-0.5-1.2-1.2-2.2-1.5c-1.4-2.3-3.9-3.7-6.4-5.1c-1.3-0.7-2.6-1.4-3.6-2.2l-0.1-0.1l-0.1-0.1
	c-2.6-1.2-5.5-2.3-8.3-3.3c-5.4-2-11-4.2-14.7-7c-1.2-3.1-4.1-4.8-6.9-6.6c-1.9-1.2-3.9-2.4-5.2-4l0-0.1l0,0
	c-3.3-3.1-6.8-6-10.2-8.9c-2.9-2.4-5.6-4.7-8.2-7.1C62.5,130.9,65.9,129.2,68.4,128"/>
<path class="st0" d="M198.8,127.6l-0.4-0.4c-4-3.4-7.2-7.1-10.3-10.6c-4.9-5.6-10-11.4-17.9-16l-0.1-0.1l-0.1,0
	c-12.1-4.4-22,0.4-30.7,4.6l-3.5,1.7c0,0,0,0.4,0,0.6c-0.1,0.1-0.4,0.3-0.5,0.5c-0.6,0.5-1.5,1.1-1.5,2.2v0c0,1.1,1,1.8,1.3,2
	l0.1,0.1l0.1,0.1c4,1.6,7.6-0.1,9.1-2.6c3.1-2.7,9.5-3.6,17.9-2.4c11.4,4.2,14.3,12.9,15,17.7c0,0,0,0.1,0,0.1
	c0,1.2,0.3,2.6,0.6,3.9c0.3,1.4,0.5,2.6,0.5,3.6c0,0.9-0.2,1.7-0.8,2.3c-15.4,1.3-27.2,4.6-36.2,9.9l-0.2,0.1l-0.7,1
	c-3,4.2-6.2,8.9-6.2,14.1c0,1.7,0.4,3.5,1.2,5.3c1,3.4,6.7,6.7,11.3,6.6c0,0,2.2-0.1,2.2-0.1c11.2-0.7,24-1.4,27.7-8.5l0,0
	c0.5-1,0.1-1.7-0.1-2c-1.1-1.4-3.6-1-9.9,0.1c-4.2,0.7-9.5,1.6-13.1,1.3c-4-0.8-5-3.2-5-6.1c0-0.8,0.1-1.6,0.2-2.4c0,0,0-0.2,0-0.4
	c4.5-4.8,12.3-5.8,19.7-6.8c0,0,3.3-0.4,3.4-0.5c3.8-0.1,5.2,0.5,5.7,1.1c0.4,0.4,0.5,0.9,0.5,1.6c0,0.5-0.1,1.1-0.1,1.8
	c-0.1,0.7-0.2,1.4-0.2,2.2c0,0.5,0,1,0.2,1.5c0,0.2-0.2,2.1-0.2,2.1c-0.2,2.3-0.4,4.7-0.4,7.1c0,5.6,1.1,11.2,5.9,16.1l0.2,0.2
	l0.3,0.1c3.6,0.9,5.9-0.5,8-1.8l1-0.6l0.1-0.6c0.2-2.1,0.7-4.3,1.3-6.6c0.7-3,1.4-6,1.5-9c0,0,0,0,0-0.1c0-4,1.5-8.1,3-12
	c1.5-4,3.1-8.1,3.1-12.3c0-2.9-0.8-5.9-2.9-9C198.8,127.9,198.8,127.6,198.8,127.6"/>
<path class="st0" d="M296.5,86.6c-0.2-6.1-3.2-11.6-8.6-16c-2.7-3.2-7.7-3.8-11.7-4.4c-2.1-0.3-4.6-0.6-5.3-1.2l-0.2-0.2l-3.1-0.9
	c-6.8-2-13.9-4-18.9-1.8c-6.1,0.2-11.1,0.9-16.4,1.6l-7.8,1l-0.2,0.1c-1.3,0.6-2.8,0.5-4.4,0.3c-2.1-0.2-4.5-0.4-6.3,1.4l-0.1,0.1
	l-0.2,0.4c-1,1.8-2.1,3.9-2.1,6.1c0,1.9,0.9,3.8,3.4,5.6c3.9,7.7,4.8,14.8,5.8,22.3c0.5,3.8,1,7.7,1.9,11.9
	c-1,5.8-1.5,11.5-1.5,17.1c0,9,1.3,17.7,3.9,25.4c-0.7,9.2-2.3,17.5-4.9,25.6l-0.1,0.3l0.1,0.3c0,0.2,0,0.3,0,0.5
	c0,0.7-0.2,1.6-0.4,2.5c-0.2,1-0.5,2.1-0.5,3.2c0,0.9,0.2,1.8,0.7,2.6c0.8,1.3,2.4,2.2,4.7,2.7l0.2,0l0.2,0c2.7-0.1,3.1-1.7,3.3-2.6
	c0.1-0.3,0.1-0.6,0.3-0.8l0.7-1.1l-1.2-0.6c-2.1-1.1-2.9-2.2-2.9-3.6c0-1.1,0.5-2.4,1.1-3.9c0.3-0.6,0.5-1.3,0.7-1.9
	c13.4,0.7,25.1-1.9,34.8-7.7l0.1-0.1l0.1-0.1c7.1-6,10.6-12.2,10.6-18.7c0-1.7-0.3-3.5-0.8-5.3c-2-7.5-12.6-11.5-22.1-15
	c4.3-2.9,9-5.6,13.6-8.1c9.6-5.4,19.5-11,25.9-18.7l0.3-0.3c0,0,0-0.1,0-0.1c5.1-5,7.8-11,7.8-17C296.5,87.1,296.5,86.8,296.5,86.6
	 M256.2,118.9c-5.6,2.9-11.4,5.9-16.8,9.7l-0.6,0.5l0.1,0.8c0,0.1,0,0.2,0,0.2c0,0.6-0.4,1.1-0.9,1.8c-0.5,0.7-1.2,1.5-1.2,2.5
	c0,0.2,0,0.4,0.1,0.5c0.3,1.1,1.2,2,3.2,3l0.1,0.1l0.1,0c1.2,0.3,2.4,0.2,3.5,0.2c1.4,0,2.7-0.1,4,0.4c0,0,3.3,1.3,3.3,1.3
	s2,0.8,2.2,0.8c0.5,0.2,0.8,0.7,1.2,1.4c0.5,0.8,1.1,1.8,2.3,2.4l-0.1,0c5,2.7,7.6,5.5,7.4,7.9c-0.6,6.2-10.5,13-23.2,15.7
	c-3.6,0.9-7.7,1-11,0.5c1.5-3.5,2.1-7,2.1-10.6c0-5.1-1.1-10.2-2.2-15.2c-1.1-5.1-2.2-10.1-2.2-14.8c0-3.2,0.5-6.4,1.8-9.5l0.1-0.3
	l-0.7-11.9c-0.5-9.7-1.1-20.5-2.1-29.3c2.5-1.2,4.4-2.7,5.7-4.6c1.7-1,3.8-1.4,6.1-2c2.4-0.6,4.9-1.1,7-2.4
	c8.2-0.2,27.6,2.6,34.7,5.4c4.4,2.6,5.8,5.8,5.8,9.1c0,3.5-1.5,7.1-2.9,10.4c-0.9,2.2-1.7,4-1.9,5.5c0,0,0,0.2,0,0.4
	C276.7,108.2,266.7,113.4,256.2,118.9"/>
<path class="st0" d="M333.6,83.2c2.9-1.7,5.7-3.3,6-5.8c0-0.2,0-0.3,0-0.5c0-1-0.5-2-1.4-3l-0.3-0.4c0,0-0.4,0-0.4,0
	c-2.2-1.9-4.7-4-9.5-4.2l-0.1,0l-0.1,0c-4.3,0.7-9.5,2.2-9.6,5.2l0,0.3l0.2,0.3c0.3,0.6,0.5,1.3,0.5,1.9c0,1.8-1.3,3.6-3.3,5.9
	c-1.5,1.7-3,3.5-3.5,5.5l-0.2,0.8l0.7,0.5c1.1,0.8,1.5,1.4,1.5,2.2c0,0.8-0.5,1.7-1.3,2.9c-0.8,1.2-1.8,2.7-1.8,4.4
	c0,1,0.4,2,1.3,3.1c-0.2,0.6-0.4,1.5-0.4,1.5c-1.6,6.5-3.3,13.2-3.3,19.4c0,0.3,0,0.6,0,0.9c-0.2,6.6-1.6,13.1-3,19.4
	c-0.9,4.1-1.8,8.4-2.5,12.8c-4.5,2.5-5.4,6-6.1,9c-0.6,2.4-1.1,4.5-3.1,6.2c-1.5,1.3-2.4,2.9-2.6,4.8c0,0.2,0,0.5,0,0.7
	c0,4.3,3.5,8.4,3.6,8.6l0.2,0.2l0.3,0.1c3.6,1.5,4.1,2.9,4.9,4.8c0.3,0.7,0.6,1.6,1.2,2.5l0.2,0.4l0.4,0.2c1.7,0.7,2.5-0.4,2.9-0.9
	c0.3-0.4,0.5-0.6,1-0.7l1.1-0.3l-0.1-1.1c-0.1-1.1-0.2-2.1-0.2-3.1c0-7.9,4-14,7.6-19.5c1.9-2.8,3.6-5.5,4.7-8.3l0.4-0.9l-0.8-0.6
	c-0.7-0.5-1-1.4-1-2.7c0-3.9,2.8-10.7,4.7-15.2c1.9-4.6,3-7.4,3-9.1c0-0.1,0-0.2,0-0.2c-0.2-3.7-0.3-6.9-0.3-9.8
	c0-9.5,0.9-15.4,2.5-25.1l1.3-8.6l0-0.1v-0.1C328.7,86.1,331.4,84.5,333.6,83.2"/>
<path class="st0" d="M385.5,150.4c0-4.8-3-8.9-5.9-12.8c-1.7-2.2-3.4-4.5-4.4-6.9l-0.5-1.1l-1.1,0.5c-2.3,1-3.2,0.1-4.6-1.3
	c-0.9-0.9-2-1.9-3.5-2.3c-2.8-1.8-7.4-0.9-11.1-0.1l-1.4,0.3l-0.3,0.2l-0.2,0.2c-12,10.4-25.6,22.2-17.9,36.8l0.1,0.2l0.2,0.1
	c1,0.9,1.1,2,1.1,3.7c0.1,2.2,0.2,5.3,4.8,6.9l0.1,0l0.1,0c1.5,0.2,3.1,0.6,4.7,1.1c4.4,1.1,9,2.3,13.8,0.7l0.1,0l0.1-0.1
	c1.8-1,3.9-2,6.2-3c9.1-4.3,20.2-9.4,20.2-17.9c0-1.1-0.2-2.3-0.6-3.5C385.5,151.6,385.5,151,385.5,150.4 M373.1,157.7
	c-1.8,3.3-6.5,5.5-11,7.7c-1.3,0.6-2.5,1.2-3.7,1.8c-4,0.5-7.8-0.9-9.9-1.9c-0.2-1-0.3-2.4-0.3-3.9c0-6.4,2.3-16.4,15.3-20.9
	c8,2.4,8.4,6.9,8.8,12C372.5,154.2,372.7,156,373.1,157.7"/>
<path class="st0" d="M449.9,152.3c0-4.8-3-8.9-5.9-12.8c-1.7-2.2-3.4-4.5-4.4-6.9l-0.5-1.1l-1.1,0.5c-2.3,1-3.2,0.1-4.6-1.3
	c-0.9-0.9-2-1.9-3.5-2.3c-2.8-1.8-7.4-0.9-11.1-0.1l-1.5,0.3l-0.3,0.2l-0.2,0.2c-12,10.4-25.5,22.2-17.9,36.8l0.1,0.2l0.2,0.1
	c1,0.9,1.1,2,1.1,3.6c0.1,2.2,0.2,5.3,4.8,6.9l0.1,0l0.1,0c1.5,0.2,3.1,0.6,4.7,1.1c4.4,1.1,9,2.3,13.8,0.7l0.1,0l0.1,0
	c1.8-1,3.9-2,6.2-3c9.1-4.3,20.2-9.4,20.2-17.9c0-1.1-0.2-2.3-0.6-3.5C449.8,153.4,449.9,152.8,449.9,152.3 M437.5,159.6
	c-1.8,3.3-6.4,5.5-11,7.6c-1.3,0.6-2.5,1.2-3.7,1.8c-4,0.5-7.7-0.9-9.9-1.9c-0.2-1-0.3-2.4-0.3-4c0-6.4,2.3-16.3,15.3-20.9
	c8,2.5,8.4,6.9,8.8,12C436.8,156,437,157.8,437.5,159.6"/>
<path class="st0" d="M611.2,191.7c-6.9-4.3-9.5-10.2-12.2-16.5c-0.9-2.1-1.9-4.4-3.1-6.5c-6.2-11.5-23.2-16-37.4-18.6
	c-4.4-0.9-9.6-0.2-14.6,0.5c-8.1,1.1-15.7,2.1-19.2-3.7l-0.1-0.2l-0.2-0.1c-7.2-5.9-17.2-3.7-25.9-1.7c-2.4,0.5-4.8,1.1-6.9,1.4
	c-3.2-7.8-13-14.7-23.4-16.2l-0.2,0l-0.2,0c-3.3,0.4-7.3,1.8-8.9,4.5c-1.2,1.4-1.8,2.8-1.8,4.2c0,0.2,0,0.4,0,0.7
	c0.4,3.2,3.8,5.4,7.3,7.7c1.3,0.9,2.7,1.8,3.8,2.7c2.7,2.2,3.8,4.4,3.8,6.5c0,2.8-1.8,5.7-3.8,9c-2.1,3.5-4.3,7.1-4.3,11.1
	c0,0.2,0,0.3,0,0.5l0,0.7c0,0,0.3,0.2,0.5,0.2c0,0.1,0,0.1,0,0.1c0,0.1,0,0.1,0,0.2c0,0.6,0.1,1.5,1.1,2.2l0.1,0.1l0.1,0
	c3.5,1.7,8.6,2.6,12.3,0l0.2-0.1l0.1-0.2c5-7.1,9.2-13,12.7-19.2c1.1-0.6,2.1-1.4,3.1-2.1c2.1-1.7,4-3.1,7.4-2.8
	c3.8,3.7,5.8,7.9,7.4,11.9l0.1,0.2l0.2,0.2c5.7,5.6,12.2,8,19.1,7.2l0.1,0l0.1,0c6.1-1.4,5.5-5.3,5-8.1c-0.3-1.6-0.5-3.1,0.2-4.1
	c0.8-1,2.6-1.8,5.4-2.2c10.3-1.4,20.9-0.3,30.6,3.1l0,0l0,0c11.1,3.3,14.3,9.3,17.7,15.7c2.9,5.5,5.9,11.1,14.1,14.5l0.3,0.1
	l0.3-0.1c1.3-0.2,2.7,0.3,4.1,0.7c1.6,0.5,3.1,1,4.3,0.2c0.7-0.5,1.1-1.3,1.1-2.5l0-0.7L611.2,191.7z"/>
<path class="st0" d="M619.3,209.9c0-3.7,2.8-6.6,6.4-6.6c3.6,0,6.4,2.9,6.4,6.6c0,3.8-2.8,6.6-6.4,6.6
	C622.1,216.5,619.3,213.7,619.3,209.9 M625.7,217.8c4.3,0,8-3.3,8-7.9c0-4.5-3.7-7.9-8-7.9c-4.3,0-8,3.4-8,7.9
	C617.7,214.5,621.4,217.8,625.7,217.8 M624,210.5h1.6l2.4,3.9h1.5l-2.6-4c1.3-0.2,2.4-0.9,2.4-2.5c0-1.8-1.1-2.6-3.2-2.6h-3.5v9.1
	h1.4V210.5z M624,209.4v-2.8h1.9c1,0,2,0.2,2,1.3c0,1.4-1,1.5-2.2,1.5L624,209.4z"/>
<path class="st1" d="M442.5,35.7c-0.2-0.6-1.3-7.6-1.3-8c-0.5-5.3,1.8-4.2,2.2-4c5.1,2.8,10,18.3,10,17.7
	c1.3-17.4,3.9-24.4,4.1-24.8c1.7-3.4,2.4-1.9,2.9-1.3c2.6,3.1,2,23.3,2.2,23c3.4-5.9,5.4-6.9,5.9-7.2c4.4-2.3,3.7,2.5,4,2.2
	c2.1-1.7,3.5-2.1,4-2c2.5,0.2-1.7,7.5-1.3,7.4c3.9-1,7.5,1.4,8,1.8c9.2,7.5-0.6,19-0.2,18.9c13.7-2.7,20.2-2.1,20.6-2
	c5.7,0.2,3.8,2.4,4.2,2.4c4.6-0.2,6.1,0.9,6.4,1.4c1.3,1.7-2.1,2.8-1.7,3.1c4.1,2.5-0.4,4.4,0.3,4.6c5.6,1.8,5.1,4.6,4.9,5
	c-2.7,6.8-30.6,6.6-30,6.9c21.7,11.5,20.1,13.7,19.9,14.3c-0.5,1.5-8.8-2.1-8-1.7c4.3,2.1,4.2,3.1,3.9,3.4c-1.1,0.8-6-1.6-5.5-1.3
	c13.3,11.4,10.3,14.3,9.9,14.7c-4.4,4.1-30.5-12.4-30.5-12.4c5.8,21.4,0.2,22.6-0.2,22.7c-7.2,1.8-12.7-15.5-13.1-15
	c-3,4.2-3-5.3-3.3-4.7c-6.9,14.3-15.1,15.2-15.6,15.2c-12.2-0.9-9.5-17.6-10.1-17.2c-12,9-20.9,8.4-21.6,8.3
	c-12.9-1.2-4.4-14.5-5.1-14.3c-9.3,2.6-8.5,1-8.3,0.6c2.5-4.9,17-9.1,15.9-9.5c-6-2.1,8.1-7.8,8.1-7.8c-15.5-5.3-13.7-8.6-13.5-9.1
	c1.7-4.2,11.8-3.7,11.1-4.1c-11.4-5-8.5-6.1-8-6.4c0.9-0.7,5,1.4,4.6,1c-10.9-9.1-9.8-13-9.2-13.8c4.5-5.9,28.8,5.5,28.8,5.5
	C438.6,32,442.6,36.3,442.5,35.7 M444.6,57.2c0,0-17.3-13.9-23.2-9.3c-0.6,0.4-4.3,9.8,11.8,12.1c1.3,0.2,5.7,0.5,8.7,4.3
	c1.6,2,4.4,8.2-6.7,11.7c0,0-9.1,3.4-13.8,6.7c-0.5,0.4-3.3,2.7,3.5,2.4c0.7-0.1,5.3-0.6,6.1-1c0.8-0.4-1.7,2.9-17,6.7
	c-0.6,0.2-0.7,3.7,6.7,1.4c1-0.3,5.4-0.7,23.6-13.6c0.5-0.3-3.3,10-2.7,19.7c0,0.6,4.2-6.7,5.5-14.1c0.2-1,1.9,9.1-2.7,16.6
	c-0.3,0.6,3.4-2.8,4.1-5.1c0.3-0.9,1.5,4.4-3.6,10.2c-1,1.2,2.3,7.6,7.6-1.1c0.4-0.7,5.5-11,5.3-19.6c0-0.6,3.9,8.7,13.5,20
	c2.6,3,6.6,2.6,5.1-3.7c-0.1-0.5-2.6-10-3.5-11.3c-0.8-1.2,11.9,8.8,21.9,11.2c0.5,0.1,7.6,2.9-5.2-9.5c-0.8-0.8-6.1-6.3-15.3-8.3
	c-0.5-0.1,5-3.2,13.4,3.5c2,1.6,3.6,1.1,1.6-1.5c-0.4-0.5-5.2-5.9-14.3-8c-0.5-0.1-0.3-3.4,10.7-0.8c0.5,0.1,4.7,1.1,7.3,0.9
	c0.7-0.1-7.4-3.8-10.9-4.6c-0.7-0.1,21-1,27-6.7c1-0.9,0.1-4-7.5,0.1c-1.2,0.6-7.8,3.4-15.3,4.3c-0.6,0.1,10.9-3.6,11.7-6.2
	c0.1-0.4,2-3.5-15.2,3.1c-0.7,0.3,4.8-3.4,3-5c0,0,0.6-1.6-8.4,2.1c-1.8,0.7-5.4-0.9-2.8-4.5c2.4-3.3-9.5-2.1-10.3-1.6
	c0.2-0.2,10.3-5.8,9.5-5.8c0.7,0-2.3-3-6.7-0.4c-1,0.6,4.6-2.9,4.9-13.3c0-0.5-7.2,3.4-9.3,5.5c-1.1,1.1-1.5-3.5-1.3-4.1
	c0.2-0.6-3.2,2.8-3.9,11.4c-0.1,1.5-2.9-10.8-7.1-10.9c-0.2,0-2.3,0.4-0.9,3.4c0.1,0.3,0.9,5.5,5,10.3c1,1.2-4.9,2.5-7.8-6.4
	c-0.1-0.3-2.2-4.2-4-2.4C442.1,46.2,440.6,49.2,444.6,57.2 M470,67c0.8,6.8-1.9,11.2-2.1,11.8c-2.4,5.7-5,5.6-5.4,5.7
	c-3.3,0.7-9.2-0.9-9.6-1c-5.4-1.4-8-8.4-8-8.7c-0.9-7.7,2.1-11.3,2.3-11.7c5-8.4,13.8-5.7,13.8-5.7C469.5,60.6,470,66.4,470,67
	 M455.7,66.5c1.5-0.5,4-0.1,5.3,0.5c8.4,4.5,0,12.4,0.5,12.1c8.4-5.2,5.9-10.5,5.6-11.1c-3.2-4.9-8.4-3.6-8.4-3.6
	C456.5,65.1,455.7,66.5,455.7,66.5 M461.3,69.5c-7.1-1.9-8.5,5.2-8.2,5.5c0.8,0.8,1.9,0.6,2.1,0.5c2.6-1.1,1.6-4.3,1.9-4.2
	c2.7,1.1,1.2,3.6,1.4,3.5C461.4,72.6,461.3,69.5,461.3,69.5 M452.6,79.7c-6.4-7.9-0.8-17.1-0.8-17.1C440,73.4,453,80.2,452.6,79.7
	 M468.2,68.2c1.8-7.4-8.1-7.8-8.1-7.8C467.6,63.1,468.1,68.7,468.2,68.2"/>
<g>
	<path class="st0" d="M38.9,213.5H18.1v12.3h18.6v3.5H18.1v14.9h-3.9v-34.3h24.6V213.5z"/>
	<path class="st0" d="M46.1,244.2v-35.8h3.8v35.8H46.1z"/>
	<path class="st0" d="M82.5,236.7c-0.7,1.6-1.6,3-2.8,4.2c-1.2,1.2-2.6,2.2-4.2,2.9c-1.6,0.7-3.4,1.1-5.3,1.1s-3.6-0.4-5.2-1.1
		c-1.6-0.7-3-1.6-4.2-2.8c-1.2-1.2-2.1-2.6-2.7-4.2c-0.7-1.6-1-3.3-1-5.1c0-1.8,0.3-3.5,1-5.1c0.7-1.6,1.6-3,2.7-4.2
		c1.2-1.2,2.6-2.2,4.2-2.9c1.6-0.7,3.4-1.1,5.3-1.1c1.9,0,3.7,0.4,5.3,1.1c1.6,0.7,3,1.6,4.2,2.8c1.2,1.2,2.1,2.6,2.7,4.2
		c0.7,1.6,1,3.3,1,5.1C83.5,233.3,83.2,235,82.5,236.7z M78.9,227.7c-0.5-1.2-1.1-2.3-2-3.2c-0.9-0.9-1.8-1.6-3-2.1
		c-1.1-0.5-2.4-0.8-3.7-0.8c-1.4,0-2.6,0.3-3.8,0.8c-1.1,0.5-2.1,1.2-2.9,2.1c-0.8,0.9-1.4,1.9-1.9,3.1c-0.5,1.2-0.7,2.5-0.7,3.8
		c0,1.4,0.2,2.7,0.7,3.9c0.5,1.2,1.1,2.2,2,3.1c0.8,0.9,1.8,1.6,3,2.1c1.1,0.5,2.4,0.8,3.7,0.8c1.4,0,2.6-0.3,3.8-0.8
		c1.1-0.5,2.1-1.2,2.9-2.1c0.8-0.9,1.5-1.9,1.9-3.1c0.5-1.2,0.7-2.5,0.7-3.8C79.6,230.2,79.4,228.9,78.9,227.7z"/>
	<path class="st0" d="M114.4,239.2l6.7-20.3h3.9l-8.9,25.5h-3.3l-6.8-20l-6.9,20h-3.3l-8.9-25.5h4l6.7,20.3l6.8-20.4h3.1
		L114.4,239.2z"/>
	<path class="st0" d="M133.3,236.6c0.5,1.1,1.2,2,2,2.7c0.8,0.7,1.7,1.3,2.7,1.7c1,0.4,2.1,0.6,3.2,0.6c1.8,0,3.3-0.3,4.5-1
		c1.3-0.7,2.4-1.5,3.5-2.6l2.4,2.1c-1.3,1.4-2.7,2.6-4.4,3.5c-1.6,0.9-3.7,1.3-6.1,1.3c-1.7,0-3.4-0.3-4.9-1c-1.5-0.6-2.9-1.5-4-2.7
		c-1.2-1.2-2.1-2.6-2.7-4.2c-0.7-1.6-1-3.4-1-5.4c0-1.8,0.3-3.6,0.9-5.2c0.6-1.6,1.4-3,2.5-4.2c1.1-1.2,2.4-2.1,3.8-2.8
		c1.5-0.7,3.1-1,4.9-1c1.9,0,3.5,0.4,5,1.1c1.5,0.7,2.7,1.7,3.7,2.9c1,1.2,1.8,2.6,2.3,4.3c0.5,1.6,0.8,3.4,0.8,5.2
		c0,0.2,0,0.3,0,0.5c0,0.2,0,0.4,0,0.6h-20C132.5,234.3,132.8,235.5,133.3,236.6z M148.6,230.2c-0.1-1.1-0.3-2.2-0.7-3.3
		c-0.4-1-0.9-2-1.6-2.7c-0.7-0.8-1.5-1.4-2.4-1.9c-1-0.5-2.1-0.7-3.3-0.7c-1.1,0-2.1,0.2-3.1,0.7c-0.9,0.4-1.8,1-2.5,1.8
		c-0.7,0.8-1.3,1.7-1.8,2.7c-0.5,1-0.7,2.2-0.9,3.4H148.6z"/>
	<path class="st0" d="M162.8,244.2h-3.8v-25.3h3.8v6.6c0.5-1,1-2,1.7-2.9c0.7-0.9,1.5-1.6,2.4-2.3c0.9-0.6,1.8-1.1,2.9-1.4
		c1-0.3,2.2-0.5,3.4-0.4v4.1h-0.3c-1.4,0-2.7,0.2-3.9,0.7c-1.2,0.5-2.3,1.2-3.2,2.2c-0.9,1-1.6,2.2-2.2,3.7c-0.5,1.5-0.8,3.1-0.8,5
		V244.2z"/>
	<path class="st0" d="M195.6,240.3c-0.5,0.9-1.1,1.7-1.9,2.4c-0.8,0.7-1.7,1.2-2.8,1.5c-1.1,0.3-2.3,0.5-3.6,0.5
		c-1.8,0-3.7-0.3-5.5-1c-1.9-0.7-3.5-1.6-4.9-2.7l1.9-2.7c1.4,1,2.8,1.8,4.3,2.4c1.5,0.6,3,0.8,4.5,0.8c1.5,0,2.8-0.4,3.8-1.1
		c1-0.7,1.5-1.7,1.5-2.9v-0.1c0-0.6-0.2-1.2-0.5-1.6c-0.3-0.5-0.8-0.9-1.4-1.2c-0.6-0.3-1.3-0.6-2-0.9c-0.8-0.3-1.6-0.5-2.4-0.7
		c-1-0.3-2-0.6-3-1c-1-0.3-1.9-0.8-2.7-1.3c-0.8-0.5-1.5-1.2-2-2c-0.5-0.8-0.8-1.8-0.8-2.9v-0.1c0-1.1,0.2-2.1,0.6-3
		c0.4-0.9,1-1.7,1.8-2.3c0.8-0.6,1.7-1.1,2.7-1.5c1.1-0.3,2.2-0.5,3.5-0.5c1.6,0,3.2,0.3,4.8,0.8c1.6,0.5,3.1,1.2,4.4,2l-1.7,2.8
		c-1.2-0.8-2.4-1.3-3.7-1.8c-1.3-0.4-2.6-0.7-3.8-0.7c-1.5,0-2.7,0.4-3.6,1.1c-0.9,0.7-1.3,1.6-1.3,2.6v0.1c0,0.6,0.2,1.1,0.5,1.5
		c0.4,0.4,0.8,0.8,1.4,1.2c0.6,0.3,1.3,0.6,2.1,0.9c0.8,0.3,1.6,0.5,2.5,0.8c1,0.3,2,0.6,2.9,1c1,0.4,1.8,0.8,2.6,1.4
		c0.8,0.6,1.4,1.2,1.9,2c0.5,0.8,0.7,1.7,0.7,2.9v0.1C196.3,238.3,196.1,239.4,195.6,240.3z"/>
	<path class="st0" d="M204,246.8c0.5-0.7,0.7-1.5,0.6-2.6h-1.8v-5.1h4.5v4.4c0,2-0.4,3.5-1.3,4.5c-0.9,1-2.3,1.8-4.1,2.2l-0.6-1.7
		C202.6,248,203.5,247.5,204,246.8z"/>
	<path class="st0" d="M254.4,243.3c-2.3,1-5,1.5-7.9,1.5c-2.7,0-5.1-0.5-7.3-1.4c-2.1-0.9-4-2.2-5.5-3.8c-1.5-1.6-2.7-3.5-3.5-5.6
		c-0.8-2.2-1.2-4.5-1.2-6.9c0-2.4,0.4-4.6,1.2-6.8c0.8-2.2,2-4,3.5-5.7c1.5-1.6,3.3-2.9,5.4-3.9c2.1-1,4.5-1.4,7-1.4
		c1.4,0,2.8,0.1,3.9,0.3c1.2,0.2,2.3,0.5,3.3,0.9c1,0.4,2,0.9,2.9,1.4c0.9,0.6,1.8,1.2,2.6,1.9l-2.5,2.9c-0.7-0.6-1.3-1.1-2.1-1.6
		c-0.7-0.5-1.5-0.9-2.3-1.2c-0.8-0.3-1.7-0.6-2.7-0.8c-1-0.2-2.1-0.3-3.3-0.3c-1.9,0-3.6,0.4-5.2,1.1c-1.6,0.8-3,1.8-4.1,3
		c-1.1,1.3-2,2.8-2.7,4.5c-0.7,1.7-1,3.5-1,5.5c0,2.1,0.3,4,1,5.7c0.6,1.8,1.5,3.3,2.7,4.5c1.2,1.3,2.6,2.3,4.3,3s3.5,1.1,5.6,1.1
		c2,0,3.8-0.3,5.5-1c1.7-0.7,3.2-1.5,4.4-2.4v-8.6h-10.4v-3.4h14.2v13.6C258.7,241,256.8,242.2,254.4,243.3z"/>
	<path class="st0" d="M268.5,213.4v-4.2h4.3v4.2H268.5z M268.8,244.2v-25.3h3.8v25.3H268.8z"/>
	<path class="st0" d="M294.5,219v3.2h-8v22h-3.8v-22h-3.5v-3.3h3.5v-2.2c0-2.8,0.7-4.9,2-6.3c1.3-1.4,3.2-2.2,5.7-2.2
		c0.9,0,1.6,0,2.3,0.1c0.6,0.1,1.3,0.3,1.9,0.5v3.3c-0.7-0.2-1.3-0.4-1.9-0.5c-0.6-0.1-1.2-0.2-1.8-0.2c-2.9,0-4.4,1.8-4.4,5.4v2.1
		H294.5z"/>
	<path class="st0" d="M304.4,237c0,1.6,0.4,2.7,1.2,3.3c0.8,0.6,1.8,0.9,3.1,0.9c0.7,0,1.3-0.1,1.8-0.2c0.6-0.1,1.2-0.4,1.8-0.7v3.2
		c-0.7,0.4-1.3,0.6-2.1,0.8c-0.7,0.2-1.6,0.3-2.5,0.3c-1,0-2-0.1-2.8-0.4c-0.9-0.3-1.6-0.7-2.3-1.2c-0.6-0.6-1.1-1.3-1.5-2.2
		c-0.4-0.9-0.5-2-0.5-3.3v-15.3h-3.5v-3.3h3.5v-7.6h3.8v7.6h8v3.3h-8V237z"/>
	<path class="st0" d="M335.8,240.3c-0.5,0.9-1.1,1.7-1.9,2.4c-0.8,0.7-1.7,1.2-2.8,1.5c-1.1,0.3-2.3,0.5-3.6,0.5
		c-1.8,0-3.7-0.3-5.5-1c-1.9-0.7-3.5-1.6-4.9-2.7l1.9-2.7c1.4,1,2.8,1.8,4.3,2.4c1.5,0.6,3,0.8,4.5,0.8c1.5,0,2.8-0.4,3.8-1.1
		c1-0.7,1.5-1.7,1.5-2.9v-0.1c0-0.6-0.2-1.2-0.5-1.6c-0.3-0.5-0.8-0.9-1.4-1.2c-0.6-0.3-1.3-0.6-2-0.9c-0.8-0.3-1.6-0.5-2.4-0.7
		c-1-0.3-2-0.6-3-1c-1-0.3-1.9-0.8-2.7-1.3c-0.8-0.5-1.5-1.2-2-2c-0.5-0.8-0.8-1.8-0.8-2.9v-0.1c0-1.1,0.2-2.1,0.6-3
		c0.4-0.9,1-1.7,1.8-2.3c0.8-0.6,1.7-1.1,2.7-1.5c1.1-0.3,2.2-0.5,3.5-0.5c1.6,0,3.2,0.3,4.8,0.8c1.6,0.5,3.1,1.2,4.4,2l-1.7,2.8
		c-1.2-0.8-2.4-1.3-3.7-1.8c-1.3-0.4-2.6-0.7-3.8-0.7c-1.5,0-2.7,0.4-3.6,1.1c-0.9,0.7-1.3,1.6-1.3,2.6v0.1c0,0.6,0.2,1.1,0.5,1.5
		c0.4,0.4,0.8,0.8,1.4,1.2c0.6,0.3,1.3,0.6,2.1,0.9c0.8,0.3,1.6,0.5,2.5,0.8c1,0.3,2,0.6,2.9,1c1,0.4,1.8,0.8,2.6,1.4s1.4,1.2,1.9,2
		s0.7,1.7,0.7,2.9v0.1C336.5,238.3,336.3,239.4,335.8,240.3z"/>
	<path class="st0" d="M363.3,222.4c-1.2,0.3-2.4,0.8-3.6,1.3l-1.1-3.1c1.4-0.7,2.8-1.2,4.3-1.5c1.4-0.4,3.1-0.6,4.9-0.6
		c3.5,0,6.1,0.9,8,2.6s2.8,4.3,2.8,7.6v15.5h-3.6v-3.8c-0.9,1.1-2.1,2.2-3.6,3s-3.4,1.3-5.6,1.3c-1.2,0-2.3-0.2-3.5-0.5
		s-2.1-0.8-3-1.5c-0.9-0.7-1.6-1.5-2.2-2.5c-0.5-1-0.8-2.1-0.8-3.5c0-1.3,0.3-2.5,0.8-3.6c0.5-1,1.3-1.9,2.2-2.6
		c1-0.7,2.1-1.2,3.4-1.6c1.3-0.4,2.8-0.5,4.4-0.5c1.6,0,3.1,0.1,4.3,0.3c1.2,0.2,2.4,0.5,3.5,0.8v-0.9c0-2.3-0.7-4-2-5.2
		c-1.3-1.2-3.2-1.7-5.6-1.7C365.9,221.9,364.5,222,363.3,222.4z M362.1,232.8c-1.3,0.9-1.9,2.2-1.9,3.9c0,0.8,0.2,1.5,0.5,2.2
		s0.8,1.2,1.4,1.6c0.6,0.4,1.3,0.8,2,1c0.8,0.2,1.6,0.3,2.4,0.3c1.2,0,2.3-0.2,3.3-0.5c1-0.3,1.9-0.8,2.7-1.4
		c0.8-0.6,1.4-1.3,1.8-2.2c0.4-0.8,0.7-1.8,0.7-2.8v-2.5c-0.9-0.3-2-0.5-3.2-0.7c-1.2-0.2-2.6-0.3-4.2-0.3
		C365.2,231.4,363.3,231.9,362.1,232.8z"/>
	<path class="st0" d="M390.3,244.2h-3.8v-25.3h3.8v4.4c0.8-1.4,2-2.5,3.3-3.5c1.4-1,3.2-1.4,5.3-1.4c1.5,0,2.9,0.2,4.1,0.7
		c1.2,0.5,2.2,1.2,3,2.1c0.8,0.9,1.5,2,1.9,3.2c0.4,1.2,0.7,2.6,0.7,4.1v15.7h-3.8v-14.8c0-2.4-0.6-4.2-1.8-5.6
		c-1.2-1.4-2.9-2.1-5.2-2.1c-1.1,0-2.1,0.2-3,0.6c-0.9,0.4-1.7,0.9-2.4,1.6c-0.7,0.7-1.2,1.5-1.6,2.5c-0.4,1-0.6,2.1-0.6,3.2V244.2z
		"/>
	<path class="st0" d="M437.1,244.2v-5.1c-0.5,0.8-1.1,1.5-1.7,2.2c-0.6,0.7-1.3,1.3-2.1,1.8s-1.7,0.9-2.6,1.2c-1,0.3-2,0.4-3.2,0.4
		c-1.5,0-3-0.3-4.5-0.9s-2.7-1.4-3.9-2.6c-1.1-1.1-2.1-2.5-2.7-4.1c-0.7-1.6-1-3.5-1-5.6s0.3-4,1-5.6c0.7-1.6,1.6-3,2.7-4.1
		s2.4-2,3.9-2.6c1.4-0.6,2.9-0.9,4.5-0.9c1.2,0,2.3,0.1,3.2,0.4c1,0.3,1.9,0.7,2.6,1.2c0.8,0.5,1.5,1.1,2.1,1.7
		c0.6,0.7,1.2,1.3,1.7,2.1v-15.3h3.8v35.8H437.1z M436.5,227.5c-0.5-1.2-1.2-2.2-2.1-3.1c-0.9-0.8-1.8-1.5-2.9-2
		c-1.1-0.5-2.2-0.7-3.4-0.7c-1.2,0-2.4,0.2-3.5,0.7c-1.1,0.4-2,1.1-2.8,1.9c-0.8,0.8-1.4,1.9-1.9,3.1s-0.7,2.6-0.7,4.1
		c0,1.5,0.2,2.8,0.7,4c0.5,1.2,1.1,2.2,1.9,3.1s1.8,1.5,2.8,2c1.1,0.5,2.2,0.7,3.4,0.7c1.2,0,2.3-0.2,3.4-0.7c1.1-0.5,2.1-1.1,2.9-2
		c0.9-0.8,1.6-1.9,2.1-3.1c0.5-1.2,0.8-2.6,0.8-4C437.2,230.1,437,228.7,436.5,227.5z"/>
	<path class="st0" d="M481.1,234.8h-0.2l-12.5-18.3v27.7h-3.8v-34.3h3.9l12.5,18.7l12.5-18.7h3.9v34.3h-3.9v-27.8L481.1,234.8z"/>
	<path class="st0" d="M530.4,236.7c-0.7,1.6-1.6,3-2.8,4.2c-1.2,1.2-2.6,2.2-4.2,2.9c-1.6,0.7-3.4,1.1-5.3,1.1
		c-1.9,0-3.6-0.4-5.2-1.1c-1.6-0.7-3-1.6-4.2-2.8c-1.2-1.2-2.1-2.6-2.7-4.2c-0.7-1.6-1-3.3-1-5.1c0-1.8,0.3-3.5,1-5.1
		c0.7-1.6,1.6-3,2.7-4.2c1.2-1.2,2.6-2.2,4.2-2.9c1.6-0.7,3.4-1.1,5.3-1.1c1.9,0,3.7,0.4,5.3,1.1c1.6,0.7,3,1.6,4.2,2.8
		c1.2,1.2,2.1,2.6,2.7,4.2c0.7,1.6,1,3.3,1,5.1C531.4,233.3,531,235,530.4,236.7z M526.8,227.7c-0.5-1.2-1.1-2.3-2-3.2
		c-0.8-0.9-1.8-1.6-3-2.1s-2.4-0.8-3.7-0.8c-1.4,0-2.6,0.3-3.8,0.8c-1.1,0.5-2.1,1.2-2.9,2.1c-0.8,0.9-1.4,1.9-1.9,3.1
		c-0.5,1.2-0.7,2.5-0.7,3.8c0,1.4,0.2,2.7,0.7,3.9c0.5,1.2,1.1,2.2,2,3.1c0.8,0.9,1.8,1.6,3,2.1c1.1,0.5,2.4,0.8,3.7,0.8
		c1.4,0,2.6-0.3,3.8-0.8c1.1-0.5,2.1-1.2,2.9-2.1s1.5-1.9,1.9-3.1c0.5-1.2,0.7-2.5,0.7-3.8C527.5,230.2,527.3,228.9,526.8,227.7z"/>
	<path class="st0" d="M541.9,244.2h-3.8v-25.3h3.8v6.6c0.5-1,1-2,1.7-2.9c0.7-0.9,1.5-1.6,2.4-2.3s1.8-1.1,2.9-1.4
		c1-0.3,2.2-0.5,3.4-0.4v4.1H552c-1.4,0-2.7,0.2-3.9,0.7c-1.2,0.5-2.3,1.2-3.2,2.2c-0.9,1-1.6,2.2-2.2,3.7c-0.5,1.5-0.8,3.1-0.8,5
		V244.2z"/>
	<path class="st0" d="M560.2,236.6c0.5,1.1,1.2,2,2,2.7c0.8,0.7,1.7,1.3,2.7,1.7c1,0.4,2.1,0.6,3.2,0.6c1.8,0,3.3-0.3,4.5-1
		c1.3-0.7,2.4-1.5,3.5-2.6l2.4,2.1c-1.3,1.4-2.7,2.6-4.4,3.5c-1.6,0.9-3.7,1.3-6.1,1.3c-1.7,0-3.4-0.3-4.9-1c-1.5-0.6-2.9-1.5-4-2.7
		c-1.2-1.2-2.1-2.6-2.7-4.2c-0.7-1.6-1-3.4-1-5.4c0-1.8,0.3-3.6,0.9-5.2c0.6-1.6,1.4-3,2.5-4.2s2.4-2.1,3.8-2.8c1.5-0.7,3.1-1,4.9-1
		c1.9,0,3.5,0.4,5,1.1c1.5,0.7,2.7,1.7,3.7,2.9c1,1.2,1.8,2.6,2.3,4.3c0.5,1.6,0.8,3.4,0.8,5.2c0,0.2,0,0.3,0,0.5c0,0.2,0,0.4,0,0.6
		h-20C559.4,234.3,559.7,235.5,560.2,236.6z M575.5,230.2c-0.1-1.1-0.3-2.2-0.7-3.3c-0.4-1-0.9-2-1.6-2.7c-0.7-0.8-1.5-1.4-2.4-1.9
		c-1-0.5-2.1-0.7-3.3-0.7c-1.1,0-2.1,0.2-3.1,0.7c-0.9,0.4-1.8,1-2.5,1.8c-0.7,0.8-1.3,1.7-1.8,2.7c-0.5,1-0.7,2.2-0.9,3.4H575.5z"
		/>
	<path class="st0" d="M585,244.2v-5.1h4.5v5.1H585z"/>
	<path class="st0" d="M597,244.2v-5.1h4.5v5.1H597z"/>
	<path class="st0" d="M609,244.2v-5.1h4.5v5.1H609z"/>
</g>
</svg>
